name C:/MyDriveSym/Projects/mobilecap/Data\Session20210819_0001\mocap\ForceDataProcessed\DJAsym2_forces.mot
datacolumns 28
datarows 11
range 1.81450000 1.81950000
endheader 
time	R_ground_force_vx	R_ground_force_vy	R_ground_force_vz	R_ground_force_px	R_ground_force_py	R_ground_force_pz	R_ground_torque_x	R_ground_torque_y	R_ground_torque_z	L_ground_force_vx	L_ground_force_vy	L_ground_force_vz	L_ground_force_px	L_ground_force_py	L_ground_force_pz	L_ground_torque_x	L_ground_torque_y	L_ground_torque_z	3_ground_force_vx	3_ground_force_vy	3_ground_force_vz	3_ground_force_px	3_ground_force_py	3_ground_force_pz	3_ground_torque_x	3_ground_torque_y	3_ground_torque_z	
          1.81450000	        -73.63931500	        528.70802000	        -70.40277300	         -0.14337000	          0.00600000	         -0.39749500	          0.00000000	         -1.61784100	          0.00000000	        -83.67416600	        515.46227400	         67.50746100	         -0.10107000	          0.00600000	         -0.72565700	          0.00000000	          1.97263300	          0.00000000	          0.00000000	          0.00000000	          0.00000000	          0.00000000	          0.00000000	          0.00000000	          0.00000000	          0.00000000	          0.00000000	
          1.81500000	        -73.95144100	        527.98125900	        -70.19536500	         -0.14324500	          0.00600000	         -0.39745800	          0.00000000	         -1.60809000	          0.00000000	        -83.88422200	        514.20966500	         67.14070500	         -0.10097100	          0.00600000	         -0.72567500	          0.00000000	          1.95761200	          0.00000000	          0.00000000	          0.00000000	          0.00000000	          0.00000000	          0.00000000	          0.00000000	          0.00000000	          0.00000000	          0.00000000	
          1.81550000	        -74.26137000	        527.23981400	        -69.98670500	         -0.14312000	          0.00600000	         -0.39742100	          0.00000000	         -1.59800500	          0.00000000	        -84.09268200	        512.92967200	         66.76746500	         -0.10087100	          0.00600000	         -0.72569400	          0.00000000	          1.94310100	          0.00000000	          0.00000000	          0.00000000	          0.00000000	          0.00000000	          0.00000000	          0.00000000	          0.00000000	          0.00000000	          0.00000000	
          1.81600000	        -74.56887400	        526.48356800	        -69.77680200	         -0.14299600	          0.00600000	         -0.39738400	          0.00000000	         -1.58759600	          0.00000000	        -84.29920500	        511.62153900	         66.38764000	         -0.10077200	          0.00600000	         -0.72571400	          0.00000000	          1.92909200	          0.00000000	          0.00000000	          0.00000000	          0.00000000	          0.00000000	          0.00000000	          0.00000000	          0.00000000	          0.00000000	          0.00000000	
          1.81650000	        -74.87372600	        525.71242100	        -69.56565400	         -0.14287200	          0.00600000	         -0.39734600	          0.00000000	         -1.57686800	          0.00000000	        -84.50342600	        510.28447500	         66.00113900	         -0.10067200	          0.00600000	         -0.72573400	          0.00000000	          1.91557400	          0.00000000	          0.00000000	          0.00000000	          0.00000000	          0.00000000	          0.00000000	          0.00000000	          0.00000000	          0.00000000	          0.00000000	
          1.81700000	        -75.17569800	        524.92628200	        -69.35324200	         -0.14274900	          0.00600000	         -0.39730800	          0.00000000	         -1.56582500	          0.00000000	        -84.70494600	        508.91767500	         65.60788400	         -0.10057100	          0.00600000	         -0.72575600	          0.00000000	          1.90253900	          0.00000000	          0.00000000	          0.00000000	          0.00000000	          0.00000000	          0.00000000	          0.00000000	          0.00000000	          0.00000000	          0.00000000	
          1.81750000	        -75.47455700	        524.12504000	        -69.13951700	         -0.14262700	          0.00600000	         -0.39726900	          0.00000000	         -1.55446700	          0.00000000	        -84.90333100	        507.52032500	         65.20780500	         -0.10047100	          0.00600000	         -0.72577800	          0.00000000	          1.88997500	          0.00000000	          0.00000000	          0.00000000	          0.00000000	          0.00000000	          0.00000000	          0.00000000	          0.00000000	          0.00000000	          0.00000000	
          1.81800000	        -75.77006000	        523.30853100	        -68.92439000	         -0.14250500	          0.00600000	         -0.39723000	          0.00000000	         -1.54279600	          0.00000000	        -85.09812900	        506.09160500	         64.80084300	         -0.10036900	          0.00600000	         -0.72580000	          0.00000000	          1.87786600	          0.00000000	          0.00000000	          0.00000000	          0.00000000	          0.00000000	          0.00000000	          0.00000000	          0.00000000	          0.00000000	          0.00000000	
          1.81850000	        -76.06195800	        522.47651300	        -68.70774100	         -0.14238400	          0.00600000	         -0.39719000	          0.00000000	         -1.53081500	          0.00000000	        -85.28888300	        504.63068800	         64.38694900	         -0.10026700	          0.00600000	         -0.72582300	          0.00000000	          1.86618800	          0.00000000	          0.00000000	          0.00000000	          0.00000000	          0.00000000	          0.00000000	          0.00000000	          0.00000000	          0.00000000	          0.00000000	
          1.81900000	        -76.34999700	        521.62867100	        -68.48942500	         -0.14226500	          0.00600000	         -0.39715000	          0.00000000	         -1.51852500	          0.00000000	        -85.47512600	        503.13676200	         63.96607600	         -0.10016400	          0.00600000	         -0.72584600	          0.00000000	          1.85491800	          0.00000000	          0.00000000	          0.00000000	          0.00000000	          0.00000000	          0.00000000	          0.00000000	          0.00000000	          0.00000000	          0.00000000	
          1.81950000	        -76.63391200	        520.76464000	        -68.26929200	         -0.14214600	          0.00600000	         -0.39710900	          0.00000000	         -1.50592800	          0.00000000	        -85.65637100	        501.60902700	         63.53817300	         -0.10006000	          0.00600000	         -0.72586900	          0.00000000	          1.84403400	          0.00000000	          0.00000000	          0.00000000	          0.00000000	          0.00000000	          0.00000000	          0.00000000	          0.00000000	          0.00000000	          0.00000000	
